<svg width="36" height="36" viewBox="0 0 36 36" fill="none" xmlns="http://www.w3.org/2000/svg">
<path d="M33.7584 17.5959L34.1827 18.0202L33.7584 17.5959ZM18 33.3543L17.5758 33.7786L18 34.2028L18.4243 33.7786L18 33.3543ZM33.3341 17.1717L17.5758 32.9301L18.4243 33.7786L34.1827 18.0202L33.3341 17.1717ZM34.9908 17.1717C34.5333 16.7142 33.7916 16.7142 33.3341 17.1717L34.1827 18.0202C34.1715 18.0314 34.1534 18.0314 34.1423 18.0202L34.9908 17.1717ZM34.9908 18.8283C35.4483 18.3709 35.4483 17.6291 34.9908 17.1717L34.1423 18.0202C34.1311 18.009 34.1311 17.991 34.1423 17.9798L34.9908 18.8283ZM18.8283 34.9908L34.9908 18.8283L34.1423 17.9798L17.9798 34.1422L18.8283 34.9908ZM17.1717 34.9908C17.6292 35.4482 18.3709 35.4482 18.8283 34.9908L17.9798 34.1422C17.991 34.1311 18.0091 34.1311 18.0202 34.1422L17.1717 34.9908ZM1.00925 18.8283L17.1717 34.9908L18.0202 34.1422L1.85778 17.9798L1.00925 18.8283ZM1.00925 17.1717C0.551781 17.6291 0.551781 18.3709 1.00925 18.8283L1.85778 17.9798C1.86894 17.991 1.86894 18.009 1.85778 18.0202L1.00925 17.1717ZM2.6659 17.1717C2.20843 16.7142 1.46672 16.7142 1.00925 17.1717L1.85778 18.0202C1.84662 18.0314 1.82853 18.0314 1.81737 18.0202L2.6659 17.1717ZM18.4243 32.9301L2.6659 17.1717L1.81737 18.0202L17.5758 33.7786L18.4243 32.9301Z" fill="white"/>
</svg>
