<svg width="22" height="24" viewBox="0 0 22 24" fill="none" xmlns="http://www.w3.org/2000/svg">
<path fill-rule="evenodd" clip-rule="evenodd" d="M21.9513 21.5097C21.9702 21.4075 21.984 21.3038 22 21.2013V2.79869C21.9846 2.69787 21.9714 2.59673 21.9526 2.49625C21.76 1.46545 20.9468 0.665505 19.9482 0.522658C19.9068 0.517076 19.8662 0.507553 19.8254 0.5H2.17459C2.0681 0.520031 1.96099 0.535137 1.85608 0.560094C0.881395 0.792262 0.160196 1.61289 0.0213595 2.64533C0.0157055 2.68835 0.00722455 2.73104 0 2.77406V21.2269C0.0201031 21.3438 0.0361227 21.4617 0.0612516 21.578C0.276732 22.5743 1.09028 23.3466 2.05805 23.4767C2.10486 23.4826 2.15197 23.4921 2.19878 23.5H19.8012C19.9156 23.4796 20.0302 23.4629 20.1433 23.4373C21.0416 23.2379 21.7757 22.4544 21.9513 21.5097ZM2.38033 20.0989C2.38033 20.5886 2.78585 21.0095 3.25419 21.0095C8.41691 21.0099 13.5793 21.0099 18.742 21.0095C19.2148 21.0095 19.6181 20.5892 19.6181 20.096C19.6184 16.6962 19.6181 13.2968 19.6181 9.89736V9.82676H17.518C17.8145 10.8175 17.9056 11.8253 17.7893 12.8525C17.6725 13.88 17.3559 14.8363 16.8401 15.7193C16.324 16.6033 15.655 17.3356 14.8358 17.9185C12.7124 19.4303 9.91679 19.5633 7.66367 18.2413C6.52471 17.5737 5.63043 16.6427 5.00692 15.4431C4.07684 13.6531 3.92827 11.7744 4.47388 9.82511C3.77718 9.82577 3.08331 9.82577 2.38002 9.82577V9.88784C2.38002 13.2915 2.3797 16.6952 2.38033 20.0989ZM10.8978 16.6581C13.3887 16.7139 15.4034 14.6333 15.4558 12.1028C15.5095 9.49312 13.4961 7.33761 11.0002 7.33925C8.56015 7.33761 6.57654 9.39001 6.5423 11.9294C6.50712 14.5371 8.50392 16.6043 10.8978 16.6581ZM19.6178 5.48158C19.6181 4.75553 19.6181 4.02914 19.6178 3.30308C19.6178 2.78227 19.2236 2.36785 18.726 2.36752C18.0334 2.36719 17.3408 2.36686 16.6479 2.36752C16.1516 2.36818 15.7561 2.78358 15.7558 3.3044C15.7555 4.02421 15.7536 4.74403 15.7583 5.46418C15.7589 5.57156 15.7784 5.68321 15.8111 5.78501C15.9355 6.16823 16.2712 6.40336 16.6824 6.40533C17.0166 6.40598 17.3508 6.405 17.6854 6.405C18.0472 6.40073 18.4103 6.40795 18.7725 6.39876C19.2383 6.38661 19.6178 5.96923 19.6178 5.48158Z" fill="#333333" fill-opacity="0.504642"/>
</svg>
