<svg width="14" height="20" viewBox="0 0 14 20" fill="black" xmlns="http://www.w3.org/2000/svg">
<path fill-rule="evenodd" clip-rule="evenodd" d="M1.31746 14.3247C1.56743 13.6428 1.92297 12.9972 2.38408 12.3881C2.84519 11.7789 3.40094 11.2353 4.05135 10.7572C4.70176 10.2791 5.42739 9.91627 6.22827 9.66873C5.8157 9.33382 5.42983 8.98192 5.07064 8.61303C4.71146 8.24414 4.3984 7.86677 4.13144 7.48089C3.86448 7.09501 3.65456 6.70671 3.50166 6.31598C3.34877 5.92525 3.27232 5.53574 3.27232 5.14743C3.27232 4.65235 3.32692 4.18153 3.43613 3.73498C3.54534 3.28843 3.69581 2.87465 3.88754 2.49363C4.07926 2.11261 4.30617 1.76799 4.56828 1.45977C4.83038 1.15156 5.1119 0.889456 5.41284 0.673462C5.71377 0.457468 6.02805 0.291227 6.35568 0.174736C6.68331 0.0582448 7.01216 0 7.34221 0C7.77906 0 8.20012 0.111636 8.60541 0.334911C9.0107 0.558186 9.37109 0.912508 9.68659 1.39789C10.0021 1.88327 10.2545 2.51183 10.4438 3.28358C10.6331 4.05534 10.7277 4.98725 10.7277 6.07936C10.7277 6.87053 10.6998 7.62164 10.644 8.33273C10.5882 9.04381 10.5069 9.72454 10.4001 10.375C10.6962 10.5594 10.9959 10.739 11.2993 10.9137C11.6026 11.0885 11.9096 11.2632 12.2203 11.4379C12.2834 11.4768 12.3622 11.5229 12.4569 11.5763C12.5515 11.6297 12.6438 11.6867 12.7336 11.7474C12.8233 11.808 12.8998 11.8687 12.9629 11.9294C13.026 11.9901 13.0575 12.0447 13.0575 12.0932C13.0575 12.1417 13.0369 12.1891 12.9957 12.2352C12.9544 12.2813 12.9059 12.325 12.85 12.3662C12.7942 12.4075 12.7384 12.4427 12.6826 12.4718C12.6268 12.5009 12.5843 12.5228 12.5552 12.5373C12.4727 12.581 12.3659 12.6028 12.2348 12.6028C11.963 12.598 11.6439 12.5446 11.2774 12.4427C10.911 12.3407 10.5117 12.1975 10.0797 12.0131C9.86618 12.9111 9.61014 13.7326 9.31164 14.4776C9.01313 15.2227 8.68671 15.8913 8.33238 16.4834C7.97806 17.0756 7.60311 17.5913 7.20752 18.0306C6.81194 18.4698 6.4115 18.8351 6.00621 19.1263C5.60092 19.4175 5.19806 19.636 4.79762 19.7816C4.39718 19.9272 4.01252 20 3.64363 20C3.26018 20 2.90465 19.9223 2.57702 19.767C2.24938 19.6117 1.96423 19.3799 1.72154 19.0717C1.47885 18.7635 1.28834 18.3813 1.15 17.925C1.01167 17.4688 0.942505 16.9373 0.942505 16.3305C0.942505 15.6753 1.06749 15.0067 1.31746 14.3247ZM2.80636 16.7965C2.80636 17.2916 2.90222 17.6665 3.09394 17.9214C3.28567 18.1762 3.53928 18.3036 3.85477 18.3036C4.17512 18.3036 4.53794 18.1628 4.94323 17.8813C5.34853 17.5998 5.75503 17.1642 6.16274 16.5744C6.57046 15.9847 6.95998 15.236 7.33129 14.3284C7.70261 13.4207 8.01689 12.3407 8.27414 11.0885L8.00475 10.921C7.50967 11.0181 7.03764 11.1867 6.58866 11.427C6.13969 11.6673 5.72227 11.9524 5.33639 12.2825C4.95051 12.6125 4.60226 12.9754 4.29161 13.3709C3.98097 13.7665 3.71523 14.1658 3.49438 14.5686C3.27353 14.9715 3.10365 15.3659 2.98473 15.7517C2.86581 16.1376 2.80636 16.4859 2.80636 16.7965ZM5.13617 4.68147C5.13617 5.06978 5.22111 5.45565 5.39099 5.8391C5.56088 6.22255 5.79871 6.60235 6.1045 6.97852C6.41029 7.35469 6.77432 7.72722 7.1966 8.0961C7.61888 8.46499 8.08484 8.82902 8.59449 9.18821C8.677 8.51353 8.74253 7.80367 8.79107 7.05861C8.83961 6.31355 8.86387 5.52118 8.86387 4.68147C8.86387 4.10872 8.82747 3.62456 8.75466 3.22898C8.68186 2.83339 8.58357 2.51183 8.4598 2.26429C8.33602 2.01674 8.19041 1.83837 8.02296 1.72916C7.8555 1.61995 7.67955 1.56534 7.49511 1.56534C7.31552 1.56534 7.1335 1.60903 6.94906 1.6964C6.76461 1.78376 6.58502 1.90389 6.41029 2.05679C6.23555 2.20968 6.07052 2.38806 5.9152 2.59192C5.75988 2.79578 5.62519 3.01298 5.51113 3.24354C5.39706 3.47409 5.30605 3.71193 5.2381 3.95704C5.17015 4.20216 5.13617 4.44363 5.13617 4.68147Z" fill="white"/>
</svg>
