<svg width="40" height="40" viewBox="0 0 40 40" fill="none" xmlns="http://www.w3.org/2000/svg">
<path fill-rule="evenodd" clip-rule="evenodd" d="M20 40C31.0457 40 40 31.0457 40 20C40 8.9543 31.0457 0 20 0C8.9543 0 0 8.9543 0 20C0 31.0457 8.9543 40 20 40Z" fill="white"/>
<path fill-rule="evenodd" clip-rule="evenodd" d="M14.3175 24.3247C14.5674 23.6428 14.923 22.9972 15.3841 22.3881C15.8452 21.7789 16.4009 21.2353 17.0514 20.7572C17.7018 20.2791 18.4274 19.9163 19.2283 19.6687C18.8157 19.3338 18.4298 18.9819 18.0706 18.613C17.7115 18.2441 17.3984 17.8668 17.1314 17.4809C16.8645 17.095 16.6546 16.7067 16.5017 16.316C16.3488 15.9252 16.2723 15.5357 16.2723 15.1474C16.2723 14.6523 16.3269 14.1815 16.4361 13.735C16.5453 13.2884 16.6958 12.8747 16.8875 12.4936C17.0793 12.1126 17.3062 11.768 17.5683 11.4598C17.8304 11.1516 18.1119 10.8895 18.4128 10.6735C18.7138 10.4575 19.0281 10.2912 19.3557 10.1747C19.6833 10.0582 20.0122 10 20.3422 10C20.7791 10 21.2001 10.1116 21.6054 10.3349C22.0107 10.5582 22.3711 10.9125 22.6866 11.3979C23.0021 11.8833 23.2545 12.5118 23.4438 13.2836C23.6331 14.0553 23.7277 14.9873 23.7277 16.0794C23.7277 16.8705 23.6998 17.6216 23.644 18.3327C23.5882 19.0438 23.5069 19.7245 23.4001 20.375C23.6962 20.5594 23.9959 20.739 24.2993 20.9137C24.6026 21.0885 24.9096 21.2632 25.2203 21.4379C25.2834 21.4768 25.3622 21.5229 25.4569 21.5763C25.5515 21.6297 25.6438 21.6867 25.7336 21.7474C25.8233 21.808 25.8998 21.8687 25.9629 21.9294C26.026 21.9901 26.0575 22.0447 26.0575 22.0932C26.0575 22.1417 26.0369 22.1891 25.9957 22.2352C25.9544 22.2813 25.9059 22.325 25.85 22.3662C25.7942 22.4075 25.7384 22.4427 25.6826 22.4718C25.6268 22.5009 25.5843 22.5228 25.5552 22.5373C25.4727 22.581 25.3659 22.6028 25.2348 22.6028C24.963 22.598 24.6439 22.5446 24.2774 22.4427C23.911 22.3407 23.5117 22.1975 23.0797 22.0131C22.8662 22.9111 22.6101 23.7326 22.3116 24.4776C22.0131 25.2227 21.6867 25.8913 21.3324 26.4834C20.9781 27.0756 20.6031 27.5913 20.2075 28.0306C19.8119 28.4698 19.4115 28.8351 19.0062 29.1263C18.6009 29.4175 18.1981 29.636 17.7976 29.7816C17.3972 29.9272 17.0125 30 16.6436 30C16.2602 30 15.9046 29.9223 15.577 29.767C15.2494 29.6117 14.9642 29.3799 14.7215 29.0717C14.4788 28.7635 14.2883 28.3813 14.15 27.925C14.0117 27.4688 13.9425 26.9373 13.9425 26.3305C13.9425 25.6753 14.0675 25.0067 14.3175 24.3247ZM15.8064 26.7965C15.8064 27.2916 15.9022 27.6665 16.0939 27.9214C16.2857 28.1762 16.5393 28.3036 16.8548 28.3036C17.1751 28.3036 17.5379 28.1628 17.9432 27.8813C18.3485 27.5998 18.755 27.1642 19.1627 26.5744C19.5705 25.9847 19.96 25.236 20.3313 24.3284C20.7026 23.4207 21.0169 22.3407 21.2741 21.0885L21.0048 20.921C20.5097 21.0181 20.0376 21.1867 19.5887 21.427C19.1397 21.6673 18.7223 21.9524 18.3364 22.2825C17.9505 22.6125 17.6023 22.9754 17.2916 23.3709C16.981 23.7665 16.7152 24.1658 16.4944 24.5686C16.2735 24.9715 16.1037 25.3659 15.9847 25.7517C15.8658 26.1376 15.8064 26.4859 15.8064 26.7965ZM18.1362 14.6815C18.1362 15.0698 18.2211 15.4556 18.391 15.8391C18.5609 16.2225 18.7987 16.6024 19.1045 16.9785C19.4103 17.3547 19.7743 17.7272 20.1966 18.0961C20.6189 18.465 21.0848 18.829 21.5945 19.1882C21.677 18.5135 21.7425 17.8037 21.7911 17.0586C21.8396 16.3135 21.8639 15.5212 21.8639 14.6815C21.8639 14.1087 21.8275 13.6246 21.7547 13.229C21.6819 12.8334 21.5836 12.5118 21.4598 12.2643C21.336 12.0167 21.1904 11.8384 21.023 11.7292C20.8555 11.6199 20.6796 11.5653 20.4951 11.5653C20.3155 11.5653 20.1335 11.609 19.9491 11.6964C19.7646 11.7838 19.585 11.9039 19.4103 12.0568C19.2356 12.2097 19.0705 12.3881 18.9152 12.5919C18.7599 12.7958 18.6252 13.013 18.5111 13.2435C18.3971 13.4741 18.3061 13.7119 18.2381 13.957C18.1701 14.2022 18.1362 14.4436 18.1362 14.6815Z" fill="#C53163"/>
</svg>
