<svg width="36" height="37" viewBox="0 0 36 37" fill="none" xmlns="http://www.w3.org/2000/svg">
<path d="M19.3359 1.41406L21.0938 5.77344C21.2812 6.14844 21.5391 6.40625 21.8672 6.54688C22.2422 6.64062 22.5938 6.59375 22.9219 6.40625L27 3.875C27.5156 3.54687 28.0312 3.57031 28.5469 3.94531C29.1094 4.32031 29.2969 4.8125 29.1094 5.42188L27.9844 10.0625C27.8906 10.4375 27.9609 10.7891 28.1953 11.1172C28.4297 11.3984 28.7344 11.5625 29.1094 11.6094L33.8906 11.9609C34.5 12.0078 34.8984 12.3359 35.0859 12.9453C35.3203 13.5547 35.1797 14.0703 34.6641 14.4922L31.0781 17.5156C30.75 17.7969 30.5859 18.125 30.5859 18.5C30.5859 18.875 30.75 19.2031 31.0781 19.4844L34.6641 22.5078C35.1797 22.9297 35.3203 23.4453 35.0859 24.0547C34.8984 24.6641 34.5 24.9922 33.8906 25.0391L29.1094 25.3906C28.7344 25.4375 28.4297 25.625 28.1953 25.9531C27.9609 26.2344 27.8906 26.5625 27.9844 26.9375L29.1094 31.5781C29.2969 32.1875 29.1094 32.6797 28.5469 33.0547C28.0312 33.4297 27.5156 33.4531 27 33.125L22.9219 30.5938C22.5938 30.4062 22.2422 30.3828 21.8672 30.5234C21.5391 30.6172 21.2812 30.8516 21.0938 31.2266L19.3359 35.5859C19.1016 36.1953 18.6562 36.5 18 36.5C17.3438 36.5 16.8984 36.1953 16.6641 35.5859L14.9062 31.2266C14.7188 30.8516 14.4375 30.6172 14.0625 30.5234C13.7344 30.3828 13.4062 30.4062 13.0781 30.5938L9 33.125C8.48438 33.4531 7.94531 33.4297 7.38281 33.0547C6.86719 32.6797 6.70312 32.1875 6.89062 31.5781L8.01562 26.9375C8.10938 26.5625 8.03906 26.2344 7.80469 25.9531C7.57031 25.625 7.26562 25.4375 6.89062 25.3906L2.10938 25.0391C1.5 24.9922 1.07812 24.6641 0.84375 24.0547C0.65625 23.4453 0.820312 22.9297 1.33594 22.5078L4.92188 19.4844C5.25 19.2031 5.41406 18.875 5.41406 18.5C5.41406 18.125 5.25 17.7969 4.92188 17.5156L1.33594 14.4922C0.820312 14.0703 0.65625 13.5547 0.84375 12.9453C1.07812 12.3359 1.5 12.0078 2.10938 11.9609L6.89062 11.6094C7.26562 11.5625 7.57031 11.3984 7.80469 11.1172C8.03906 10.7891 8.10938 10.4375 8.01562 10.0625L6.89062 5.42188C6.70312 4.8125 6.86719 4.32031 7.38281 3.94531C7.94531 3.57031 8.48438 3.54687 9 3.875L13.0781 6.40625C13.4062 6.59375 13.7344 6.64062 14.0625 6.54688C14.4375 6.40625 14.7188 6.14844 14.9062 5.77344L16.6641 1.41406C16.8984 0.804687 17.3438 0.5 18 0.5C18.6562 0.5 19.1016 0.804687 19.3359 1.41406ZM27.5625 18.5C27.5625 16.7656 27.1172 15.1719 26.2266 13.7188C25.3828 12.2656 24.2344 11.1172 22.7812 10.2734C21.3281 9.38281 19.7344 8.9375 18 8.9375C16.2656 8.9375 14.6719 9.38281 13.2188 10.2734C11.7656 11.1172 10.5938 12.2656 9.70312 13.7188C8.85938 15.1719 8.4375 16.7656 8.4375 18.5C8.4375 20.2344 8.85938 21.8281 9.70312 23.2812C10.5938 24.7344 11.7656 25.9062 13.2188 26.7969C14.6719 27.6406 16.2656 28.0625 18 28.0625C19.7344 28.0625 21.3281 27.6406 22.7812 26.7969C24.2344 25.9062 25.3828 24.7344 26.2266 23.2812C27.1172 21.8281 27.5625 20.2344 27.5625 18.5ZM25.3125 18.5C25.3125 19.8125 24.9844 21.0312 24.3281 22.1562C23.6719 23.2812 22.7812 24.1719 21.6562 24.8281C20.5312 25.4844 19.3125 25.8125 18 25.8125C16.6875 25.8125 15.4688 25.4844 14.3438 24.8281C13.2188 24.1719 12.3281 23.2812 11.6719 22.1562C11.0156 21.0312 10.6875 19.8125 10.6875 18.5C10.6875 17.1875 11.0156 15.9688 11.6719 14.8438C12.3281 13.7188 13.2188 12.8281 14.3438 12.1719C15.4688 11.5156 16.6875 11.1875 18 11.1875C19.3125 11.1875 20.5312 11.5156 21.6562 12.1719C22.7812 12.8281 23.6719 13.7188 24.3281 14.8438C24.9844 15.9688 25.3125 17.1875 25.3125 18.5Z" fill="#FF65C2"/>
</svg>
