<svg width="50" height="50" viewBox="0 0 50 50" fill="none" xmlns="http://www.w3.org/2000/svg">
<path fill-rule="evenodd" clip-rule="evenodd" d="M46.844 46.8435C46.284 47.4035 45.311 47.4015 44.753 46.8435L32.218 34.3095C32.968 33.6665 33.667 32.9685 34.309 32.2185L46.844 44.7535C47.42 45.3295 47.42 46.2675 46.844 46.8435ZM19.818 36.9125C10.392 36.9125 2.72302 29.2435 2.72302 19.8185C2.72302 10.3925 10.392 2.72351 19.818 2.72351C29.243 2.72351 36.912 10.3925 36.912 19.8185C36.912 29.2435 29.243 36.9125 19.818 36.9125ZM48.258 43.3395L35.544 30.6255C37.664 27.5495 38.912 23.8285 38.912 19.8185C38.912 9.28851 30.347 0.723511 19.818 0.723511C9.28802 0.723511 0.723022 9.28851 0.723022 19.8185C0.723022 30.3475 9.28802 38.9125 19.818 38.9125C23.828 38.9125 27.549 37.6645 30.625 35.5435L43.339 48.2575C43.996 48.9145 44.869 49.2765 45.799 49.2765C46.728 49.2765 47.601 48.9145 48.258 48.2575C48.915 47.6005 49.277 46.7275 49.277 45.7985C49.277 44.8695 48.915 43.9965 48.258 43.3395Z" fill="white"/>
</svg>
